<svg id="Layer_1" data-name="Layer 1" xmlns="http://www.w3.org/2000/svg" viewBox="0 0 850.39 1172.97"><defs><style>.cls-1{fill:#fff;}</style></defs><title>G_icon</title><path class="cls-1" d="M912.82,407.22c0-9.83-1.55-102.66-54.5-192.54A357.13,357.13,0,0,0,724.68,83.42c-66-37.33-146.06-56.28-238-56.28-91.64,0-171.41,19-237.16,56.39a356.82,356.82,0,0,0-133,131.35C63.94,304.7,62.43,393.5,62.43,403.31V833.82c0,9.68,1.53,96.93,54.93,184.85,50.27,82.78,155.14,181.44,369.31,181.44,215.15,0,320.51-99.4,371-182.78,53.54-88.45,55.13-176.23,55.13-186V578.23H425.11l47.27,178.21h241.4v74c-.19,4-2.73,48.72-29.94,90-35.68,54.2-102,81.68-197.17,81.68-94.46,0-160.27-27.11-195.62-80.55-26.91-40.72-29.43-84.81-29.59-88.73V404.17c.14-3.84,2.54-51.1,30.22-94.77,35.9-56.69,99.67-84.23,195-84.23,96.17,0,160.52,27.59,196.75,84.42,28.84,45.26,30.36,98.27,30.36,98.76v-1.13Z" transform="translate(-62.43 -27.14)"/></svg>